<?xml version="1.0" encoding="utf-8"?>
<!-- Generator: Adobe Illustrator 24.3.0, SVG Export Plug-In . SVG Version: 6.00 Build 0)  -->
<svg version="1.1" id="Layer_1" xmlns="http://www.w3.org/2000/svg" xmlns:xlink="http://www.w3.org/1999/xlink" x="0px" y="0px"
	 viewBox="0 0 551.55 159.74" style="enable-background:new 0 0 551.55 159.74;" xml:space="preserve">
<style type="text/css">
	.st0{fill:#4B31DD;}
	.st1{fill:#302B2C;}
	.st2{fill:#E6E7E8;}
	.st3{fill:#231F20;}
	.st4{fill:none;stroke:#E6E7E8;stroke-width:4.352;stroke-miterlimit:10;}
	.st5{opacity:0.05;}
	.st6{fill:none;stroke:#E6E7E8;stroke-width:2.6804;stroke-miterlimit:10;}
	.st7{fill:#FFFFFF;}
	.st8{fill:none;stroke:#FFFFFF;stroke-width:3.3677;stroke-miterlimit:10;}
	.st9{fill:none;stroke:#231F20;stroke-width:3.3677;stroke-miterlimit:10;}
	.st10{fill:#0D75BC;}
	.st11{fill:none;stroke:#FFFFFF;stroke-width:2.4653;stroke-miterlimit:10;}
	.st12{fill:none;stroke:#231F20;stroke-width:2.4653;stroke-miterlimit:10;}
	.st13{fill:none;stroke:#0D75BC;stroke-width:2.4653;stroke-miterlimit:10;}
	.st14{fill:#D91C5C;}
	.st15{fill:none;stroke:#D91C5C;stroke-width:2.4653;stroke-miterlimit:10;}
	.st16{fill:#EEEEEE;}
	.st17{clip-path:url(#SVGID_2_);fill:url(#);}
	.st18{clip-path:url(#SVGID_4_);fill:url(#);}
	.st19{fill:none;stroke:#4B31DD;stroke-width:7;stroke-linecap:round;stroke-linejoin:round;stroke-miterlimit:10;}
	.st20{fill:none;stroke:#2EEFA0;stroke-width:5;stroke-miterlimit:10;}
	.st21{fill:none;}
	.st22{font-family:'RobotoMono-Regular';}
	.st23{font-size:27.0322px;}
	.st24{letter-spacing:10;}
	.st25{fill:none;stroke:#4B31DD;stroke-width:2;stroke-miterlimit:10;}
	.st26{fill:#D0D2D3;}
	.st27{opacity:0.5;}
	.st28{clip-path:url(#SVGID_6_);fill:url(#);}
	.st29{clip-path:url(#SVGID_8_);fill:url(#);}
	.st30{clip-path:url(#SVGID_10_);fill:url(#);}
</style>
<g>
	<g>
		<g>
			<g>
				<path class="st3" d="M3.37,102.52V32.74c0-1.46,0.5-2.71,1.51-3.76c1.01-1.05,2.24-1.57,3.7-1.57h16.48
					c1.31,0,2.69,0.52,4.15,1.57s2.65,2.3,3.59,3.76l33.86,52.07V32.62c0-1.46,0.51-2.69,1.54-3.7c1.03-1.01,2.27-1.51,3.73-1.51
					h9.64c1.46,0,2.7,0.5,3.73,1.51c1.03,1.01,1.54,2.28,1.54,3.81v69.79c0,1.46-0.51,2.7-1.54,3.73c-1.03,1.03-2.27,1.54-3.73,1.54
					H62.96c-1.46,0-2.95-0.51-4.48-1.54c-1.53-1.03-2.75-2.27-3.64-3.73l-31-48.09v48.09c0,1.46-0.51,2.7-1.54,3.73
					c-1.03,1.03-2.27,1.54-3.73,1.54H8.7c-1.46,0-2.71-0.51-3.76-1.54C3.89,105.22,3.37,103.98,3.37,102.52z"/>
				<path class="st3" d="M101.8,76.01V32.74c0-1.46,0.51-2.71,1.54-3.76c1.03-1.05,2.31-1.57,3.84-1.57h10.48
					c1.42,0,2.65,0.52,3.7,1.57c1.05,1.05,1.57,2.3,1.57,3.76v43.39c0,10.88,4.93,16.31,14.8,16.31h8.97
					c9.87,0,14.8-5.44,14.8-16.31V32.74c0-1.46,0.51-2.71,1.54-3.76s2.27-1.57,3.73-1.57h10.43c1.53,0,2.82,0.52,3.87,1.57
					s1.57,2.3,1.57,3.76v43.27c0,10.17-2.95,18.09-8.86,23.77c-6.13,5.64-14.97,8.46-26.51,8.46h-10.09
					c-11.51,0-20.31-2.82-26.4-8.46C104.79,94.1,101.8,86.17,101.8,76.01z M137.06,16.98l2.75-10.54c1.46-4.3,3.9-6.45,7.34-6.45
					h5.05c2.43,0,4.04,0.8,4.82,2.41c0.3,0.52,0.45,1.23,0.45,2.1c0,0.88-0.37,1.9-1.12,3.06l-6.11,10.59
					c-2.06,3.51-4.35,5.27-6.89,5.27h-2.63c-2.77,0-4.15-1.23-4.15-3.7C136.56,18.98,136.72,18.07,137.06,16.98z"/>
				<path class="st3" d="M203.34,98.32c-6.93-6.62-10.4-16.84-10.4-30.69s3.46-24.08,10.4-30.72c6.93-6.63,17.33-9.95,31.19-9.95
					h12.5c8.48,0,15.98,2.21,22.51,6.61c6.52,4.41,9.78,10.45,9.78,18.11c0,2.21-0.65,3.78-1.96,4.74
					c-1.31,0.95-2.58,1.43-3.81,1.43h-6.67c-3.44,0-6.11-2.05-8.02-6.17c-2.77-5.9-7.36-8.86-13.79-8.86h-9.98
					c-8.18,0-13.73,1.76-16.65,5.27c-2.91,3.51-4.37,10.01-4.37,19.51c0,9.49,1.46,16,4.37,19.54c2.91,3.53,8.46,5.3,16.65,5.3
					h11.15c6.43,0,11-2.95,13.73-8.86c1.91-4.15,4.6-6.22,8.07-6.22h6.67c1.76,0,3.15,0.65,4.18,1.96c1.03,1.31,1.54,2.73,1.54,4.26
					c0,7.66-3.25,13.69-9.75,18.08c-6.5,4.39-14,6.59-22.48,6.59h-13.68C220.67,108.24,210.27,104.93,203.34,98.32z"/>
				<path class="st3" d="M291.32,102.63V32.85c0-1.53,0.52-2.82,1.57-3.87c1.05-1.05,2.3-1.57,3.76-1.57h10.54
					c1.46,0,2.7,0.52,3.73,1.57c1.03,1.05,1.54,2.34,1.54,3.87v59.08h48.82c1.46,0,2.7,0.52,3.73,1.57c1.03,1.05,1.54,2.3,1.54,3.76
					v5.27c0,1.46-0.51,2.7-1.54,3.73c-1.03,1.03-2.27,1.54-3.73,1.54h-64.63c-1.46,0-2.71-0.49-3.76-1.48
					C291.84,105.32,291.32,104.09,291.32,102.63z"/>
				<path class="st3" d="M375.68,102.41V32.62c0-1.46,0.52-2.69,1.57-3.7c1.05-1.01,2.3-1.51,3.76-1.51h64.63
					c1.46,0,2.7,0.52,3.73,1.57c1.03,1.05,1.54,2.3,1.54,3.76V38c0,1.46-0.51,2.7-1.54,3.73c-1.03,1.03-2.27,1.54-3.73,1.54h-48.82
					v16.31h42.04c1.46,0,2.7,0.51,3.73,1.54c1.03,1.03,1.54,2.27,1.54,3.73v5.27c0,1.46-0.51,2.7-1.54,3.73
					c-1.03,1.03-2.27,1.54-3.73,1.54h-42.04v16.54h48.71c1.42,0,2.63,0.5,3.64,1.51c1.01,1.01,1.51,2.24,1.51,3.7v5.38
					c0,1.46-0.52,2.7-1.57,3.73c-1.05,1.03-2.3,1.54-3.76,1.54H381c-1.46,0-2.71-0.51-3.76-1.54
					C376.2,105.22,375.68,103.94,375.68,102.41z"/>
			</g>
			<path class="st3" d="M535.41,35.76c-7.64-6.69-18.86-10.03-33.63-10.03c-14.78,0-26,3.34-33.66,10.03
				c-7.66,6.69-11.49,17.3-11.49,31.84c0,14.54,3.83,25.16,11.49,31.87c7.66,6.71,18.88,10.06,33.66,10.06
				c14.78,0,25.99-3.35,33.63-10.06c7.64-6.71,11.46-17.33,11.46-31.87C546.87,53.06,543.04,42.45,535.41,35.76z M501.74,83.29
				c-8.67,0-15.69-7.02-15.69-15.69s7.03-15.69,15.69-15.69s15.69,7.02,15.69,15.69S510.41,83.29,501.74,83.29z"/>
		</g>
		<rect x="2" y="129.29" class="st21" width="544.87" height="30.45"/>
		<text transform="matrix(1 0 0 1 2 152.4116)"><tspan x="0" y="0" class="st3 st22 st23">JORNALISMO</tspan><tspan x="162.22" y="0" class="st3 st22 st23 st24"> </tspan><tspan x="188.94" y="0" class="st3 st22 st23">•</tspan><tspan x="205.16" y="0" class="st3 st22 st23 st24"> </tspan><tspan x="231.88" y="0" class="st3 st22 st23">DADOS</tspan><tspan x="312.99" y="0" class="st3 st22 st23 st24"> </tspan><tspan x="339.71" y="0" class="st3 st22 st23">•</tspan><tspan x="355.93" y="0" class="st3 st22 st23 st24"> </tspan><tspan x="382.65" y="0" class="st3 st22 st23">TECNOLOGIA</tspan></text>
	</g>
</g>
</svg>
